# This file uses centimeters as units for non-parametric coordinates.

mtllib Mask.mtl
g default
v -13.110950 12.023193 1.521482
v -13.175546 14.566475 2.250246
v -13.010680 14.566475 2.166035
v -12.946080 12.023193 1.437271
v -9.700002 11.553553 3.609609
v -9.700002 11.553553 3.424479
v -9.700002 14.566475 4.156100
v -9.700002 14.566475 4.341230
v -13.379627 13.207895 2.160283
v -9.700002 13.207895 4.476186
v -9.700002 13.207895 4.291056
v -13.214758 13.207895 2.076073
v -13.042480 14.386505 2.152017
v -9.700002 14.386505 4.177129
v -9.700002 14.386505 4.362261
v -13.207349 14.386505 2.236227
v -14.166603 15.242599 0.358173
v -14.001735 15.242599 0.273964
v -14.134803 15.422569 0.372192
v -13.969934 15.422569 0.287981
v -13.841873 15.382246 -1.341896
v -13.657000 15.388432 -1.334332
v -13.821381 15.539349 -1.434071
v -13.636508 15.545532 -1.426506
v -6.289050 12.023193 1.521482
v -6.224454 14.566475 2.250246
v -6.389322 14.566475 2.166035
v -6.453919 12.023193 1.437271
v -6.020373 13.207895 2.160283
v -6.185242 13.207895 2.076073
v -6.357520 14.386505 2.152017
v -6.192651 14.386505 2.236227
v -5.233397 15.242599 0.358173
v -5.398268 15.242599 0.273964
v -5.265197 15.422569 0.372192
v -5.430068 15.422569 0.287981
v -5.569440 15.382246 -1.263561
v -5.754312 15.388432 -1.255997
v -5.589932 15.539349 -1.355736
v -5.774804 15.545532 -1.348171
vt 0.818665 0.673083
vt 0.833633 0.685557
vt 0.500235 0.238962
vt 0.837638 0.725929
vt 0.500439 0.314390
vt 0.822105 0.728412
vt 0.180236 0.291894
vt 0.170709 0.225241
vt 0.502894 0.580783
vt 0.500460 0.327829
vt 0.500499 0.342353
vt 0.190249 0.316620
vt 0.182488 0.301647
vt 0.162220 0.101174
vt 0.499827 0.102764
vt 0.502766 0.568050
vt 0.820278 0.549542
vt 0.809091 0.560977
vt 0.082978 0.386339
vt 0.510753 0.795054
vt 0.507767 0.719005
vt 0.823786 0.737584
vt 0.511279 0.807380
vt 0.075051 0.382854
vt 0.881282 0.839472
vt 0.872855 0.835279
vt 0.094212 0.391209
vt 0.818258 0.815941
vt 0.128757 0.438423
vt 0.820526 0.809730
vt 0.116576 0.442715
vt 0.133510 0.433889
vt 0.820298 0.300615
vt 0.812861 0.315780
vt 0.831587 0.223725
vt 0.822268 0.290480
vt 0.181036 0.696377
vt 0.181333 0.753179
vt 0.166034 0.748806
vt 0.166670 0.710481
vt 0.182118 0.578349
vt 0.169930 0.567386
vt 0.839171 0.098609
vt 0.939146 0.372347
vt 0.180272 0.762500
vt 0.931594 0.377409
vt 0.919238 0.386263
vt 0.086892 0.866764
vt 0.924649 0.459921
vt 0.081517 0.862116
vt 0.091010 0.836128
vt 0.096524 0.839013
vt 0.909942 0.463458
vt 0.903445 0.462272
vn -0.440116 0.252627 -0.861671
vn -0.442651 0.230229 -0.866634
vn -0.451421 0.122932 -0.883803
vn -0.451421 0.122932 -0.883803
vn 0.000000 -0.260678 0.965426
vn 0.000000 0.062564 0.998041
vn -0.545510 0.056732 0.836182
vn -0.522237 -0.258426 0.812702
vn -0.000000 -0.998033 -0.062700
vn -0.000000 -0.998032 -0.062700
vn -0.101900 -0.992838 -0.062370
vn -0.101900 -0.992837 -0.062370
vn 0.524209 -0.053140 -0.849930
vn 0.000000 -0.062577 -0.998040
vn -0.000000 0.260607 -0.965445
vn 0.523114 0.258259 -0.812191
vn 0.000000 1.000000 0.000000
vn 0.000000 1.000000 0.000000
vn 0.057791 0.991897 0.113142
vn 0.089050 0.980651 0.174340
vn -0.493939 -0.443351 0.747973
vn 0.000000 -0.509894 0.860237
vn -0.000000 0.510037 -0.860152
vn 0.495240 0.443098 -0.747263
vn -0.425623 0.352791 -0.833297
vn -0.425623 0.352791 -0.833297
vn 0.515697 -0.062207 -0.854510
vn -0.000000 -0.072607 -0.997361
vn 0.000001 0.072647 0.997358
vn -0.660933 0.083447 0.745791
vn -0.171095 -0.926562 -0.334976
vn -0.171095 -0.926562 -0.334976
vn -0.125315 -0.955027 -0.268737
vn -0.089722 -0.972083 -0.216807
vn -0.973225 0.120303 0.195858
vn -0.960084 0.120062 0.252635
vn 0.085301 0.975249 0.203995
vn 0.121403 0.958123 0.259350
vn -0.001276 -0.996275 -0.086226
vn -0.001276 -0.996275 -0.086226
vn -0.979012 0.112478 -0.169955
vn -0.979012 0.112478 -0.169955
vn -0.002867 0.997721 0.067411
vn -0.002867 0.997721 0.067411
vn 0.440117 0.252630 -0.861670
vn 0.451421 0.122933 -0.883802
vn 0.451422 0.122933 -0.883802
vn 0.442652 0.230231 -0.866633
vn 0.101900 -0.992837 -0.062376
vn 0.101900 -0.992837 -0.062376
vn -0.524208 -0.053139 -0.849930
vn -0.523114 0.258259 -0.812191
vn -0.089049 0.980650 0.174343
vn -0.057790 0.991897 0.113143
vn 0.522236 -0.258426 0.812702
vn 0.545510 0.056732 0.836182
vn 0.493939 -0.443351 0.747974
vn -0.495240 0.443098 -0.747263
vn 0.425623 0.352794 -0.833295
vn 0.425623 0.352794 -0.833295
vn -0.515695 -0.062207 -0.854511
vn 0.660933 0.083449 0.745791
vn 0.171093 -0.926562 -0.334977
vn 0.092074 -0.970763 -0.221678
vn 0.127834 -0.953430 -0.273186
vn 0.171093 -0.926562 -0.334977
vn 0.959504 0.118843 0.255400
vn 0.973269 0.118832 0.196537
vn -0.123835 0.956632 0.263667
vn -0.087482 0.974124 0.208397
vn 0.002264 -0.995875 -0.090703
vn 0.002264 -0.995875 -0.090703
vn 0.976818 0.108795 -0.184365
vn 0.976818 0.108795 -0.184365
vn 0.002151 0.997498 0.070659
vn 0.002151 0.997498 0.070659
s 1
g pCube1
usemtl lambert7SG
f 12/1/1 9/2/2 16/4/3 13/6/4
s 2
f 10/3/5 15/5/6 16/7/7 9/8/8
s 3
f 6/9/9 5/16/10 1/17/11 4/18/12
s 4
f 13/6/13 14/20/14 11/21/15 12/1/16
s 5
f 8/10/17 7/11/18 3/12/19 2/13/20
s 2
f 1/14/21 5/15/22 10/3/5 9/8/8
s 4
f 11/21/15 6/9/23 4/18/24 12/1/16
s 1
f 1/17/25 9/2/2 12/1/1 4/18/26
s 4
f 3/22/27 7/23/28 14/20/14 13/6/13
s 2
f 15/5/6 8/10/29 2/13/30 16/7/7
s 6
f 13/6/31 16/4/32 17/25/33 18/26/34
s 2
f 16/7/7 2/13/30 19/19/35 17/24/36
s 5
f 2/13/20 3/12/19 20/27/37 19/19/38
s 6
f 18/26/34 17/25/33 21/28/39 22/30/40
s 2
f 17/24/36 19/19/35 23/29/41 21/31/42
s 5
f 19/19/38 20/27/37 24/32/43 23/29/44
s 7
f 30/37/45 31/38/46 32/39/47 29/40/48
s 3
f 28/41/49 25/42/50 5/16/10 6/9/9
s 4
f 31/38/51 30/37/52 11/21/15 14/20/14
s 5
f 26/33/53 27/34/54 7/11/18 8/10/17
s 2
f 29/35/55 32/36/56 15/5/6 10/3/5
f 5/15/22 25/43/57 29/35/55 10/3/5
s 4
f 11/21/15 30/37/52 28/41/58 6/9/23
s 7
f 25/42/59 28/41/60 30/37/45 29/40/48
s 4
f 7/23/28 27/45/61 31/38/51 14/20/14
s 2
f 15/5/6 32/36/56 26/33/62 8/10/29
s 8
f 31/38/63 34/48/64 33/50/65 32/39/66
s 2
f 32/36/56 33/44/67 35/46/68 26/33/62
s 5
f 26/33/53 35/46/69 36/47/70 27/34/54
s 8
f 34/48/64 38/51/71 37/52/72 33/50/65
s 2
f 33/44/67 37/49/73 39/53/74 35/46/68
s 5
f 35/46/69 39/53/75 40/54/76 36/47/70
