# This file uses centimeters as units for non-parametric coordinates.

mtllib 14.mtl
g default
v 0.000000 -0.000001 1000.749483
v 0.000000 437.903393 1000.749412
v 3.769518 -0.000001 1002.310865
v 3.769518 437.903393 1002.310793
v 5.330903 -0.000000 1006.080386
v 5.330903 437.903394 1006.080315
v 3.769518 0.000000 1009.849908
v 3.769518 437.903394 1009.849837
v -0.000000 0.000001 1011.411290
v -0.000000 437.903395 1011.411218
v -3.769518 0.000000 1009.849908
v -3.769518 437.903394 1009.849837
v -5.330903 -0.000000 1006.080386
v -5.330903 437.903394 1006.080315
v -3.769518 -0.000001 1002.310865
v -3.769518 437.903393 1002.310793
v 0.000512 256.642290 831.258066
v -0.000000 440.568641 1000.749412
v 123.618754 256.642298 882.462425
v 3.769517 440.568641 1002.310793
v 174.823092 256.642319 1006.080629
v 5.330902 440.568642 1006.080315
v 123.618754 256.642339 1129.698844
v 3.769517 440.568642 1009.849836
v 0.000496 256.642347 1180.903233
v -0.000000 440.568643 1011.411218
v -123.617737 256.642339 1129.698844
v -3.769518 440.568642 1009.849836
v -174.822096 256.642319 1006.080629
v -5.330903 440.568642 1006.080315
v -123.617737 256.642298 882.462425
v -3.769518 440.568641 1002.310793
v 2.194650 440.568641 1003.885657
v -0.000000 440.568641 1002.976607
v 3.103704 440.568642 1006.080315
v 2.194650 440.568642 1008.274973
v -0.000000 440.568642 1009.184023
v -2.194651 440.568642 1008.274973
v -3.103704 440.568642 1006.080315
v -2.194651 440.568641 1003.885657
v 2.194628 446.072073 1003.885656
v -0.000022 446.072073 1002.976606
v 3.103682 446.072074 1006.080314
v 2.194628 446.072074 1008.274972
v -0.000022 446.072074 1009.184022
v -2.194672 446.072074 1008.274972
v -3.103726 446.072074 1006.080314
v -2.194672 446.072073 1003.885656
v 3.731605 446.072114 1002.348678
v -0.000037 446.072113 1000.802975
v 5.277302 446.072114 1006.080314
v 3.731605 446.072115 1009.811950
v -0.000038 446.072115 1011.357652
v -3.731680 446.072115 1009.811950
v -5.277377 446.072114 1006.080314
v -3.731680 446.072114 1002.348678
v 0.655593 461.139952 1005.424665
v -0.000044 461.139952 1005.153101
v 0.927167 461.139952 1006.080311
v 0.655593 461.139952 1006.735957
v -0.000044 461.139952 1007.007521
v -0.655681 461.139952 1006.735957
v -0.927254 461.139952 1006.080311
v -0.655681 461.139952 1005.424665
v 0.000511 256.642291 833.885246
v 121.761060 256.642299 884.320139
v 172.195912 256.642319 1006.080629
v 121.761060 256.642338 1127.841161
v 0.000496 256.642347 1178.276054
v -121.760053 256.642338 1127.841161
v -172.194916 256.642319 1006.080629
v -121.760053 256.642299 884.320139
v 0.000489 437.202581 1000.106862
v 4.224553 437.202581 1001.856533
v 5.974218 437.202582 1006.080600
v 4.224553 437.202583 1010.304667
v 0.000488 437.202583 1012.054337
v -4.223577 437.202583 1010.304667
v -5.973242 437.202582 1006.080600
v -4.223577 437.202581 1001.856533
vt 0.529048 0.000004
vt 0.528834 0.604421
vt 0.523202 0.604419
vt 0.523416 0.000002
vt 0.517571 0.604417
vt 0.517785 0.000000
vt 0.504022 0.604420
vt 0.504236 0.000000
vt 0.509867 0.000002
vt 0.509653 0.604421
vt 0.515499 0.000004
vt 0.515285 0.604423
vt 0.094843 0.000092
vt 0.098121 0.000046
vt 0.098228 0.007641
vt 0.094949 0.007687
vt 0.101400 0.000000
vt 0.101506 0.007595
vt 0.114380 0.007605
vt 0.111102 0.007596
vt 0.111122 0.000000
vt 0.114401 0.000009
vt 0.117659 0.007614
vt 0.117680 0.000018
vt 0.073174 0.021399
vt 0.067745 0.020656
vt 0.072850 0.000000
vt 0.073804 0.000130
vt 0.078638 0.020979
vt 0.074764 0.000057
vt 0.048821 0.000000
vt 0.054250 0.000743
vt 0.049145 0.021400
vt 0.048191 0.021269
vt 0.043357 0.000420
vt 0.047231 0.021343
vt 0.536751 0.604419
vt 0.536965 0.000002
vt 0.542597 0.000004
vt 0.542383 0.604421
vt 0.531119 0.604417
vt 0.531334 -0.000000
vt 0.556039 0.000002
vt 0.555932 0.604419
vt 0.550300 0.604418
vt 0.550407 0.000001
vt 0.544668 0.604417
vt 0.544776 0.000000
vt 0.119252 0.000000
vt 0.122530 0.000009
vt 0.122510 0.007605
vt 0.119231 0.007596
vt 0.125809 0.000018
vt 0.125788 0.007614
vt 0.109530 0.007614
vt 0.106251 0.007605
vt 0.106272 0.000009
vt 0.109550 0.000018
vt 0.102972 0.007596
vt 0.102993 0.000000
vt 0.062370 0.000000
vt 0.067799 0.000743
vt 0.062693 0.021399
vt 0.061740 0.021269
vt 0.056906 0.000420
vt 0.060780 0.021343
vt 0.043413 0.020921
vt 0.037954 0.021395
vt 0.038375 0.000121
vt 0.039334 0.000038
vt 0.032518 0.020706
vt 0.037420 0.000000
vt 0.013068 0.013068
vt 0.007655 0.015310
vt 0.002242 0.013068
vt 0.000000 0.007655
vt 0.002242 0.002242
vt 0.007655 0.000000
vt 0.013068 0.002242
vt 0.015310 0.007655
vt 0.023914 0.000000
vt 0.029327 0.002242
vt 0.031569 0.007655
vt 0.029327 0.013068
vt 0.023914 0.015310
vt 0.018501 0.013068
vt 0.016259 0.007655
vt 0.018501 0.002242
vt 0.250175 0.754641
vt 0.246520 0.752628
vt 0.248298 0.751204
vt 0.250425 0.752377
vt 0.081611 0.934709
vt 0.262318 1.000000
vt 0.245360 0.748620
vt 0.247624 0.748870
vt 0.254183 0.753481
vt 0.252759 0.751702
vt 0.000000 0.760763
vt 0.436264 0.918389
vt 0.247373 0.744965
vt 0.248797 0.746743
vt 0.256196 0.749826
vt 0.253932 0.749575
vt 0.065291 0.580056
vt 0.501555 0.737682
vt 0.251381 0.743805
vt 0.251130 0.746069
vt 0.255036 0.745818
vt 0.253258 0.747242
vt 0.239237 0.498445
vt 0.419944 0.563735
vt 0.428059 0.073038
vt 0.502078 0.250371
vt 0.498755 0.250377
vt 0.425714 0.075394
vt 0.429017 0.428092
vt 0.426663 0.425747
vt 0.257106 0.251976
vt 0.255992 0.247421
vt 0.250322 0.000000
vt 0.250331 0.003324
vt 0.251696 0.502088
vt 0.251689 0.498764
vt 0.254674 0.255986
vt 0.244999 0.250096
vt 0.247433 0.246090
vt 0.251987 0.244984
vt 0.250120 0.257094
vt 0.246126 0.254650
vt 0.073017 0.074040
vt 0.075373 0.076385
vt 0.073999 0.429037
vt 0.076343 0.426681
vt 0.003323 0.251741
vt 0.000000 0.251748
vt 0.083011 0.010730
vt 0.086162 0.012035
vt 0.086162 0.015156
vt 0.080804 0.012937
vt 0.089314 0.010730
vt 0.091521 0.012937
vt 0.081705 0.007578
vt 0.078584 0.007578
vt 0.090619 0.007578
vt 0.093740 0.007578
vt 0.083011 0.004427
vt 0.080804 0.002220
vt 0.089314 0.004427
vt 0.091521 0.002220
vt 0.086162 0.003121
vt 0.086162 0.000000
vt 0.129633 0.000390
vt 0.130023 0.001331
vt 0.129633 0.002273
vt 0.128692 0.002663
vt 0.127750 0.002273
vt 0.127360 0.001331
vt 0.127750 0.000390
vt 0.128692 0.000000
vn 0.382683 -0.000000 -0.923880
vn 0.382683 -0.000000 -0.923880
vn 0.382683 -0.000000 -0.923880
vn 0.382683 -0.000000 -0.923880
vn 0.923880 -0.000000 -0.382683
vn 0.923880 -0.000000 -0.382683
vn 0.923880 -0.000000 -0.382683
vn 0.923880 -0.000000 -0.382683
vn 0.923880 0.000000 0.382683
vn 0.923880 0.000000 0.382683
vn 0.923880 0.000000 0.382683
vn 0.923880 0.000000 0.382683
vn 0.382682 0.000000 0.923880
vn 0.382682 0.000000 0.923880
vn 0.382682 0.000000 0.923880
vn 0.382682 0.000000 0.923880
vn -0.382683 0.000000 0.923880
vn -0.382683 0.000000 0.923880
vn -0.382683 0.000000 0.923880
vn -0.382683 0.000000 0.923880
vn -0.923880 0.000000 0.382683
vn -0.923880 0.000000 0.382683
vn -0.923880 0.000000 0.382683
vn -0.923880 0.000000 0.382683
vn -0.000001 1.000000 -0.000000
vn -0.000001 1.000000 -0.000000
vn -0.000001 1.000000 -0.000000
vn -0.000001 1.000000 -0.000000
vn -0.000001 1.000000 -0.000000
vn -0.000001 1.000000 -0.000000
vn -0.000001 1.000000 -0.000000
vn -0.000001 1.000000 -0.000000
vn -0.923880 -0.000000 -0.382683
vn -0.923880 -0.000000 -0.382683
vn -0.923880 -0.000000 -0.382683
vn -0.923880 -0.000000 -0.382683
vn -0.382682 -0.000000 -0.923880
vn -0.382682 -0.000000 -0.923880
vn -0.382682 -0.000000 -0.923880
vn -0.382682 -0.000000 -0.923880
vn 0.000000 -1.000000 0.000000
vn 0.000000 -1.000000 0.000000
vn 0.000000 -1.000000 0.000000
vn 0.000000 -1.000000 0.000000
vn 0.000000 -1.000000 0.000000
vn 0.000000 -1.000000 0.000000
vn 0.000000 -1.000000 0.000000
vn 0.000000 -1.000000 0.000000
vn 0.291384 0.648255 -0.703464
vn 0.291384 0.648255 -0.703464
vn 0.291384 0.648255 -0.703464
vn 0.291384 0.648255 -0.703464
vn 0.703462 0.648256 -0.291384
vn 0.703462 0.648256 -0.291384
vn 0.703462 0.648256 -0.291384
vn 0.703462 0.648256 -0.291384
vn 0.703462 0.648257 0.291383
vn 0.703462 0.648257 0.291383
vn 0.703462 0.648257 0.291383
vn 0.703462 0.648257 0.291383
vn 0.291384 0.648256 0.703462
vn 0.291384 0.648256 0.703462
vn 0.291384 0.648256 0.703462
vn 0.291384 0.648256 0.703462
vn -0.291384 0.648255 0.703463
vn -0.291384 0.648255 0.703463
vn -0.291384 0.648255 0.703463
vn -0.291384 0.648255 0.703463
vn -0.703464 0.648254 0.291384
vn -0.703464 0.648254 0.291384
vn -0.703464 0.648254 0.291384
vn -0.703464 0.648254 0.291384
vn 0.000000 1.000000 -0.000000
vn 0.000000 1.000000 -0.000000
vn 0.000000 1.000000 -0.000000
vn 0.000000 1.000000 -0.000000
vn -0.703464 0.648254 -0.291385
vn -0.703464 0.648254 -0.291385
vn -0.703464 0.648254 -0.291385
vn -0.703464 0.648254 -0.291385
vn -0.291384 0.648254 -0.703464
vn -0.291384 0.648254 -0.703464
vn -0.291384 0.648254 -0.703464
vn -0.291384 0.648254 -0.703464
vn 0.000003 -1.000000 0.000000
vn 0.000003 -1.000000 0.000000
vn 0.000003 -1.000000 0.000000
vn 0.000003 -1.000000 0.000000
vn -0.382682 -0.000001 0.923880
vn -0.382682 -0.000001 0.923880
vn -0.382682 -0.000001 0.923880
vn -0.382682 -0.000001 0.923880
vn -0.000008 1.000000 -0.000000
vn -0.000008 1.000000 -0.000000
vn -0.000008 1.000000 -0.000000
vn -0.000008 1.000000 -0.000000
vn 0.000000 1.000000 -0.000000
vn 0.000000 1.000000 -0.000000
vn 0.000000 1.000000 -0.000000
vn 0.000000 1.000000 -0.000000
vn 0.000000 1.000000 -0.000000
vn 0.000000 1.000000 -0.000000
vn 0.000000 1.000000 -0.000000
vn 0.000000 1.000000 -0.000000
vn 0.000008 1.000000 -0.000000
vn 0.000008 1.000000 -0.000000
vn 0.000008 1.000000 -0.000000
vn 0.000008 1.000000 -0.000000
vn 0.000008 1.000000 -0.000000
vn 0.000008 1.000000 -0.000000
vn 0.000008 1.000000 -0.000000
vn 0.000008 1.000000 -0.000000
vn -0.000008 1.000000 -0.000000
vn -0.000008 1.000000 -0.000000
vn -0.000008 1.000000 -0.000000
vn -0.000008 1.000000 -0.000000
vn 0.000000 1.000000 -0.000000
vn 0.000000 1.000000 -0.000000
vn 0.000000 1.000000 -0.000000
vn 0.000000 1.000000 -0.000000
vn -0.000017 -1.000000 -0.000008
vn -0.000017 -1.000000 -0.000008
vn -0.000017 -1.000000 -0.000008
vn -0.000017 -1.000000 -0.000008
vn 0.923880 0.000004 0.382682
vn 0.923880 0.000004 0.382682
vn 0.923880 0.000004 0.382682
vn 0.923880 0.000004 0.382682
vn 0.382682 0.000001 -0.923880
vn 0.382682 0.000001 -0.923880
vn 0.382682 0.000001 -0.923880
vn 0.382682 0.000001 -0.923880
vn -0.382682 -0.000002 -0.923880
vn -0.382682 -0.000002 -0.923880
vn -0.382682 -0.000002 -0.923880
vn -0.382682 -0.000002 -0.923880
vn -0.923880 -0.000004 0.382681
vn -0.923880 -0.000004 0.382681
vn -0.923880 -0.000004 0.382681
vn -0.923880 -0.000004 0.382681
vn 0.382682 0.000002 0.923880
vn 0.382682 0.000002 0.923880
vn 0.382682 0.000002 0.923880
vn 0.382682 0.000002 0.923880
vn 0.923880 0.000004 -0.382682
vn 0.923880 0.000004 -0.382682
vn 0.923880 0.000004 -0.382682
vn 0.923880 0.000004 -0.382682
vn -0.923880 -0.000004 -0.382681
vn -0.923880 -0.000004 -0.382681
vn -0.923880 -0.000004 -0.382681
vn -0.923880 -0.000004 -0.382681
vn -0.892672 0.257716 0.369756
vn -0.892672 0.257716 0.369756
vn -0.892672 0.257716 0.369756
vn -0.892672 0.257716 0.369756
vn -0.000008 -1.000000 0.000019
vn -0.000008 -1.000000 0.000019
vn -0.000008 -1.000000 0.000019
vn -0.000008 -1.000000 0.000019
vn 0.000017 -1.000000 0.000008
vn 0.000017 -1.000000 0.000008
vn 0.000017 -1.000000 0.000008
vn 0.000017 -1.000000 0.000008
vn 0.000008 -1.000000 -0.000019
vn 0.000008 -1.000000 -0.000019
vn 0.000008 -1.000000 -0.000019
vn 0.000008 -1.000000 -0.000019
vn -0.000017 -1.000000 -0.000019
vn -0.000017 -1.000000 -0.000019
vn -0.000017 -1.000000 -0.000019
vn -0.000017 -1.000000 -0.000019
vn -0.000017 -1.000000 0.000008
vn -0.000017 -1.000000 0.000008
vn -0.000017 -1.000000 0.000008
vn -0.000017 -1.000000 0.000008
vn 0.000017 -1.000000 0.000019
vn 0.000017 -1.000000 0.000019
vn 0.000017 -1.000000 0.000019
vn 0.000017 -1.000000 0.000019
vn 0.000017 -1.000000 -0.000008
vn 0.000017 -1.000000 -0.000008
vn 0.000017 -1.000000 -0.000008
vn 0.000017 -1.000000 -0.000008
vn -0.000011 1.000000 -0.000000
vn -0.000011 1.000000 -0.000000
vn -0.000011 1.000000 -0.000000
vn -0.000011 1.000000 -0.000000
vn -0.000011 1.000000 -0.000000
vn -0.000011 1.000000 -0.000000
vn -0.000011 1.000000 -0.000000
vn -0.000011 1.000000 -0.000000
vn 0.369755 0.257717 0.892672
vn 0.369755 0.257717 0.892672
vn 0.369755 0.257717 0.892672
vn 0.369755 0.257717 0.892672
vn 0.892671 0.257717 -0.369756
vn 0.892671 0.257717 -0.369756
vn 0.892671 0.257717 -0.369756
vn 0.892671 0.257717 -0.369756
vn -0.892672 0.257716 -0.369756
vn -0.892672 0.257716 -0.369756
vn -0.892672 0.257716 -0.369756
vn -0.892672 0.257716 -0.369756
vn -0.369752 0.257717 0.892673
vn -0.369752 0.257717 0.892673
vn -0.369752 0.257717 0.892673
vn -0.369752 0.257717 0.892673
vn 0.892671 0.257717 0.369756
vn 0.892671 0.257717 0.369756
vn 0.892671 0.257717 0.369756
vn 0.892671 0.257717 0.369756
vn 0.369752 0.257717 -0.892673
vn 0.369752 0.257717 -0.892673
vn 0.369752 0.257717 -0.892673
vn 0.369752 0.257717 -0.892673
vn -0.369755 0.257716 -0.892672
vn -0.369755 0.257716 -0.892672
vn -0.369755 0.257716 -0.892672
vn -0.369755 0.257716 -0.892672
vn -0.291508 -0.647875 -0.703762
vn -0.291508 -0.647875 -0.703762
vn -0.291508 -0.647875 -0.703762
vn -0.291508 -0.647875 -0.703762
vn -0.000011 -1.000000 0.000000
vn -0.000011 -1.000000 0.000000
vn -0.000011 -1.000000 0.000000
vn -0.000011 -1.000000 0.000000
vn 0.000011 -1.000000 0.000000
vn 0.000011 -1.000000 0.000000
vn 0.000011 -1.000000 0.000000
vn 0.000011 -1.000000 0.000000
vn -0.000003 -1.000000 0.000000
vn -0.000003 -1.000000 0.000000
vn -0.000003 -1.000000 0.000000
vn -0.000003 -1.000000 0.000000
vn -0.000003 -1.000000 0.000000
vn -0.000003 -1.000000 0.000000
vn -0.000003 -1.000000 0.000000
vn -0.000003 -1.000000 0.000000
vn 0.000003 -1.000000 0.000000
vn 0.000003 -1.000000 0.000000
vn 0.000003 -1.000000 0.000000
vn 0.000003 -1.000000 0.000000
vn 0.000000 -1.000000 0.000000
vn 0.000000 -1.000000 0.000000
vn 0.000000 -1.000000 0.000000
vn 0.000000 -1.000000 0.000000
vn 0.000000 -1.000000 0.000000
vn 0.000000 -1.000000 0.000000
vn 0.000000 -1.000000 0.000000
vn 0.000000 -1.000000 0.000000
vn 0.000000 -1.000000 0.000000
vn 0.000000 -1.000000 0.000000
vn 0.000000 -1.000000 0.000000
vn 0.000000 -1.000000 0.000000
vn 0.000000 -1.000000 0.000000
vn 0.000000 -1.000000 0.000000
vn 0.000000 -1.000000 0.000000
vn 0.000000 -1.000000 0.000000
vn -0.703762 -0.647875 0.291508
vn -0.703762 -0.647875 0.291508
vn -0.703762 -0.647875 0.291508
vn -0.703762 -0.647875 0.291508
vn 0.703762 -0.647875 0.291508
vn 0.703762 -0.647875 0.291508
vn 0.703762 -0.647875 0.291508
vn 0.703762 -0.647875 0.291508
vn 0.291508 -0.647875 -0.703762
vn 0.291508 -0.647875 -0.703762
vn 0.291508 -0.647875 -0.703762
vn 0.291508 -0.647875 -0.703762
vn -0.703762 -0.647875 -0.291508
vn -0.703762 -0.647875 -0.291508
vn -0.703762 -0.647875 -0.291508
vn -0.703762 -0.647875 -0.291508
vn -0.291508 -0.647875 0.703762
vn -0.291508 -0.647875 0.703762
vn -0.291508 -0.647875 0.703762
vn -0.291508 -0.647875 0.703762
vn 0.291508 -0.647875 0.703762
vn 0.291508 -0.647875 0.703762
vn 0.291508 -0.647875 0.703762
vn 0.291508 -0.647875 0.703762
vn 0.703762 -0.647875 -0.291508
vn 0.703762 -0.647875 -0.291508
vn 0.703762 -0.647875 -0.291508
vn 0.703762 -0.647875 -0.291508
s off
g parasol_Open
usemtl texturedFacets7
f 1/37/1 2/38/2 4/39/3 3/40/4
f 3/1/5 4/2/6 6/3/7 5/4/8
f 5/4/9 6/3/10 8/5/11 7/6/12
f 7/43/13 8/44/14 10/45/15 9/46/16
f 9/46/17 10/45/18 12/47/19 11/48/20
f 11/7/21 12/8/22 14/9/23 13/10/24
f 4/73/25 2/74/26 16/75/27 14/76/28 12/77/29 10/78/30 8/79/31 6/80/32
f 13/10/33 14/9/34 16/11/35 15/12/36
f 15/41/37 16/42/38 2/38/39 1/37/40
f 1/81/41 3/82/42 5/83/43 7/84/44 9/85/45 11/86/46 13/87/47 15/88/48
f 17/106/49 18/103/50 20/109/51 19/112/52
f 19/112/53 20/109/54 22/107/55 21/111/56
f 21/111/57 22/107/58 24/101/59 23/105/60
f 23/105/61 24/101/62 26/95/63 25/99/64
f 25/99/65 26/95/66 28/90/67 27/93/68
f 27/93/69 28/90/70 30/89/71 29/94/72
f 30/89/73 28/90/74 38/91/75 39/92/76
f 29/94/77 30/89/78 32/97/79 31/100/80
f 31/100/81 32/97/82 18/103/83 17/106/84
f 23/113/85 25/114/86 69/115/87 68/116/88
f 38/49/89 37/50/90 45/51/91 46/52/92
f 26/95/93 24/101/94 36/102/95 37/96/96
f 32/97/97 30/89/98 39/92/99 40/98/100
f 22/107/101 20/109/102 33/110/103 35/108/104
f 28/90/105 26/95/106 37/96/107 38/91/108
f 18/103/109 32/97/110 40/98/111 34/104/112
f 20/109/113 18/103/114 34/104/115 33/110/116
f 24/101/117 22/107/118 35/108/119 36/102/120
f 48/137/121 47/138/122 55/139/123 56/140/124
f 36/13/125 35/14/126 43/15/127 44/16/128
f 33/55/129 34/56/130 42/57/131 41/58/132
f 34/56/133 40/59/134 48/60/135 42/57/136
f 39/19/137 38/20/138 46/21/139 47/22/140
f 37/50/141 36/53/142 44/54/143 45/51/144
f 35/14/145 33/17/146 41/18/147 43/15/148
f 40/23/149 39/19/150 47/22/151 48/24/152
f 55/25/153 54/26/154 62/27/155 63/28/156
f 46/141/157 45/145/158 53/146/159 54/142/160
f 44/149/161 43/151/162 51/152/163 52/150/164
f 41/147/165 42/143/166 50/144/167 49/148/168
f 42/143/169 48/137/170 56/140/171 50/144/172
f 47/138/173 46/141/174 54/142/175 55/139/176
f 45/145/177 44/149/178 52/150/179 53/146/180
f 43/151/181 41/147/182 49/148/183 51/152/184
f 57/153/185 58/154/186 64/155/187 63/156/188 62/157/189 61/158/190 60/159/191 59/160/192
f 53/61/193 52/62/194 60/63/195 61/64/196
f 51/31/197 49/32/198 57/33/199 59/34/200
f 56/29/201 55/25/202 63/28/203 64/30/204
f 54/65/205 53/61/206 61/64/207 62/66/208
f 52/35/209 51/31/210 59/34/211 60/36/212
f 49/67/213 50/68/214 58/69/215 57/70/216
f 50/68/217 56/71/218 64/72/219 58/69/220
f 68/116/221 69/115/222 77/119/223 76/120/224
f 29/123/225 31/133/226 72/134/227 71/124/228
f 19/131/229 21/121/230 67/122/231 66/132/232
f 25/114/233 27/117/234 70/118/235 69/115/236
f 31/133/237 17/136/238 65/135/239 72/134/240
f 17/136/241 19/131/242 66/132/243 65/135/244
f 21/121/245 23/113/246 68/116/247 67/122/248
f 27/117/249 29/123/250 71/124/251 70/118/252
f 73/126/253 74/127/254 75/128/255 76/120/256 77/119/257 78/125/258 79/129/259 80/130/260
f 66/132/261 67/122/262 75/128/263 74/127/264
f 71/124/265 72/134/266 80/130/267 79/129/268
f 69/115/269 70/118/270 78/125/271 77/119/272
f 67/122/273 68/116/274 76/120/275 75/128/276
f 65/135/277 66/132/278 74/127/279 73/126/280
f 72/134/281 65/135/282 73/126/283 80/130/284
f 70/118/285 71/124/286 79/129/287 78/125/288
